<svg xmlns="http://www.w3.org/2000/svg" viewBox="0 0 512 512" role="img" aria-labelledby="title"><title>Bali Discount logo</title><circle cx="256" cy="256" r="252" fill="#ff8a00"/><text x="256" y="118" fill="#fff" text-anchor="middle" font-family="Arial,Helvetica,sans-serif" font-size="54" font-weight="600">Bali · Discount</text><g fill="#fff"><path d="M 58.5 174.3 L 62.2 192.6 L 54.9 204.8 L 81.7 251.1 L 103.6 270.6 L 157.3 270.6 L 191.4 282.8 L 246.2 321.8 L 290.1 368.2 L 291.4 393.8 L 270.6 416.9 L 291.4 416.9 L 307.2 408.4 L 295.0 388.9 L 317.0 375.5 L 327.9 353.5 L 354.7 331.6 L 376.7 331.6 L 401.1 320.6 L 409.6 308.4 L 431.5 308.4 L 468.1 270.6 L 462.0 254.8 L 442.5 248.7 L 431.5 225.5 L 429.1 230.4 L 386.4 195.0 L 298.7 164.6 L 274.3 169.4 L 257.2 191.4 L 236.5 202.4 L 196.3 208.5 L 157.3 202.4 L 100.0 182.9 L 79.2 192.6 L 71.9 175.5 Z"/><path d="M 360.8 380.3 L 358.4 382.8 L 358.4 385.2 L 351.1 392.5 L 351.1 397.4 L 352.3 398.6 L 353.5 398.6 L 358.4 403.5 L 360.8 403.5 L 363.3 405.9 L 363.3 407.2 L 364.5 407.2 L 368.2 410.8 L 369.4 410.8 L 370.6 412.0 L 379.1 412.0 L 381.6 414.5 L 385.2 414.5 L 386.4 415.7 L 385.2 416.9 L 386.4 418.1 L 388.9 418.1 L 390.1 416.9 L 392.5 416.9 L 392.5 415.7 L 395.0 413.3 L 395.0 409.6 L 393.8 408.4 L 393.8 405.9 L 395.0 404.7 L 397.4 407.2 L 397.4 402.3 L 393.8 398.6 L 393.8 397.4 L 391.3 395.0 L 390.1 391.3 L 387.7 388.9 L 388.9 387.7 L 387.7 386.4 L 387.7 385.2 L 385.2 385.2 L 384.0 384.0 L 384.0 381.6 L 382.8 380.3 L 382.8 379.1 L 377.9 379.1 L 375.5 381.6 L 364.5 381.6 L 363.3 380.3 Z"/></g></svg>